<svg width="800" height="500" viewBox="0 0 800 500" fill="none" xmlns="http://www.w3.org/2000/svg">
  <defs>
    <linearGradient id="qbBg" x1="0%" y1="0%" x2="100%" y2="100%">
      <stop offset="0%" stop-color="#0b0f19"/>
      <stop offset="100%" stop-color="#111827"/>
    </linearGradient>
    <linearGradient id="indigoGrad" x1="0%" y1="0%" x2="100%" y2="100%">
      <stop offset="0%" stop-color="#6366f1"/>
      <stop offset="100%" stop-color="#4f46e5"/>
    </linearGradient>
    <linearGradient id="receiptGrad" x1="0%" y1="0%" x2="0%" y2="100%">
      <stop offset="0%" stop-color="#ffffff"/>
      <stop offset="100%" stop-color="#f8fafc"/>
    </linearGradient>
  </defs>

  <!-- Background -->
  <rect width="800" height="500" fill="url(#qbBg)"/>

  <!-- Ambient Glow -->
  <circle cx="260" cy="220" r="160" fill="#6366f1" opacity="0.08"/>
  <circle cx="600" cy="240" r="140" fill="#0ea5e9" opacity="0.06"/>

  <!-- Left Side: POS Counter & Bill Builder Dashboard -->
  <g transform="translate(60, 40)">
    <!-- Main Window / Tablet Frame -->
    <rect width="400" height="420" rx="20" fill="#1e293b" stroke="rgba(255, 255, 255, 0.1)" stroke-width="1.5"/>
    <rect x="2" y="2" width="396" height="416" rx="18" fill="#0f172a"/>

    <!-- Window Header -->
    <rect x="2" y="2" width="396" height="40" rx="18" fill="#1e293b"/>
    <circle cx="24" cy="22" r="5" fill="#ef4444"/>
    <circle cx="38" cy="22" r="5" fill="#f59e0b"/>
    <circle cx="52" cy="22" r="5" fill="#10b981"/>
    <text x="74" y="26" fill="#ffffff" font-size="12" font-weight="700" font-family="system-ui, sans-serif">QuickBill POS — Offline Store Register</text>
    <rect x="310" y="12" width="76" height="20" rx="10" fill="rgba(16, 185, 129, 0.15)"/>
    <text x="348" y="26" fill="#10b981" font-size="10" font-weight="700" text-anchor="middle" font-family="system-ui, sans-serif">● Offline</text>

    <!-- Business Header in app -->
    <g transform="translate(20, 54)">
      <text x="0" y="16" fill="#ffffff" font-size="15" font-weight="800" font-family="system-ui, sans-serif">Apex Coffee &amp; Bakery</text>
      <text x="0" y="30" fill="#64748b" font-size="10" font-family="system-ui, sans-serif">VAT / PAN: 602391024 • Invoice #INV-1082</text>
    </g>

    <!-- Itemized List Table -->
    <g transform="translate(20, 96)">
      <!-- Table Header -->
      <rect width="360" height="24" rx="6" fill="rgba(255, 255, 255, 0.04)"/>
      <text x="12" y="16" fill="#94a3b8" font-size="10" font-weight="700" font-family="system-ui, sans-serif">ITEM DESCRIPTION</text>
      <text x="210" y="16" fill="#94a3b8" font-size="10" font-weight="700" font-family="system-ui, sans-serif">QTY</text>
      <text x="265" y="16" fill="#94a3b8" font-size="10" font-weight="700" font-family="system-ui, sans-serif">RATE</text>
      <text x="348" y="16" fill="#94a3b8" font-size="10" font-weight="700" text-anchor="end" font-family="system-ui, sans-serif">TOTAL</text>

      <!-- Row 1 -->
      <rect y="30" width="360" height="34" rx="8" fill="rgba(255, 255, 255, 0.02)"/>
      <text x="12" y="52" fill="#ffffff" font-size="11" font-weight="600" font-family="system-ui, sans-serif">Espresso Roast Double</text>
      <text x="215" y="52" fill="#cbd5e1" font-size="11" font-family="system-ui, sans-serif">2</text>
      <text x="265" y="52" fill="#cbd5e1" font-size="11" font-family="system-ui, sans-serif">$3.50</text>
      <text x="348" y="52" fill="#ffffff" font-size="11" font-weight="700" text-anchor="end" font-family="system-ui, sans-serif">$7.00</text>

      <!-- Row 2 -->
      <rect y="68" width="360" height="34" rx="8" fill="rgba(255, 255, 255, 0.02)"/>
      <text x="12" y="90" fill="#ffffff" font-size="11" font-weight="600" font-family="system-ui, sans-serif">Almond Butter Croissant</text>
      <text x="215" y="90" fill="#cbd5e1" font-size="11" font-family="system-ui, sans-serif">1</text>
      <text x="265" y="90" fill="#cbd5e1" font-size="11" font-family="system-ui, sans-serif">$4.50</text>
      <text x="348" y="90" fill="#ffffff" font-size="11" font-weight="700" text-anchor="end" font-family="system-ui, sans-serif">$4.50</text>

      <!-- Row 3 -->
      <rect y="106" width="360" height="34" rx="8" fill="rgba(255, 255, 255, 0.02)"/>
      <text x="12" y="128" fill="#ffffff" font-size="11" font-weight="600" font-family="system-ui, sans-serif">Nitro Cold Brew (Large)</text>
      <text x="215" y="128" fill="#cbd5e1" font-size="11" font-family="system-ui, sans-serif">1</text>
      <text x="265" y="128" fill="#cbd5e1" font-size="11" font-family="system-ui, sans-serif">$5.50</text>
      <text x="348" y="128" fill="#ffffff" font-size="11" font-weight="700" text-anchor="end" font-family="system-ui, sans-serif">$5.50</text>
    </g>

    <!-- Calculation Totals Block -->
    <g transform="translate(20, 254)">
      <rect width="360" height="96" rx="12" fill="rgba(255, 255, 255, 0.03)" stroke="rgba(255, 255, 255, 0.06)"/>
      
      <text x="16" y="24" fill="#94a3b8" font-size="11" font-family="system-ui, sans-serif">Subtotal (3 items)</text>
      <text x="344" y="24" fill="#ffffff" font-size="11" font-weight="600" text-anchor="end" font-family="system-ui, sans-serif">$17.00</text>

      <text x="16" y="44" fill="#10b981" font-size="11" font-family="system-ui, sans-serif">Loyalty Discount (10%)</text>
      <text x="344" y="44" fill="#10b981" font-size="11" font-weight="600" text-anchor="end" font-family="system-ui, sans-serif">-$1.70</text>

      <text x="16" y="64" fill="#94a3b8" font-size="11" font-family="system-ui, sans-serif">VAT / Sales Tax (13%)</text>
      <text x="344" y="64" fill="#ffffff" font-size="11" font-weight="600" text-anchor="end" font-family="system-ui, sans-serif">+$1.99</text>

      <line x1="16" y1="72" x2="344" y2="72" stroke="rgba(255, 255, 255, 0.1)"/>
      <text x="16" y="88" fill="#ffffff" font-size="13" font-weight="800" font-family="system-ui, sans-serif">GRAND TOTAL</text>
      <text x="344" y="88" fill="#6366f1" font-size="14" font-weight="900" text-anchor="end" font-family="system-ui, sans-serif">$17.29</text>
    </g>

    <!-- Bottom Action Buttons -->
    <g transform="translate(20, 362)">
      <rect width="170" height="38" rx="10" fill="url(#indigoGrad)"/>
      <text x="85" y="386" fill="#ffffff" font-size="12" font-weight="700" text-anchor="middle" font-family="system-ui, sans-serif">🖨️ Print Receipt</text>

      <rect x="185" width="175" height="38" rx="10" fill="rgba(255, 255, 255, 0.08)" stroke="rgba(255, 255, 255, 0.15)"/>
      <text x="272" y="386" fill="#ffffff" font-size="12" font-weight="600" text-anchor="middle" font-family="system-ui, sans-serif">📥 Export A4 / PDF</text>
    </g>
  </g>

  <!-- Right Side: Thermal Paper Receipt Mockup -->
  <g transform="translate(500, 30)">
    <!-- Shadow & Paper -->
    <rect width="240" height="440" rx="6" fill="url(#receiptGrad)" filter="drop-shadow(0 20px 30px rgba(0,0,0,0.5))"/>
    
    <!-- Receipt Serrated Top / Bottom Effect -->
    <line x1="0" y1="0" x2="240" y2="0" stroke="#cbd5e1" stroke-width="2" stroke-dasharray="4 4"/>
    <line x1="0" y1="440" x2="240" y2="440" stroke="#cbd5e1" stroke-width="2" stroke-dasharray="4 4"/>

    <!-- Receipt Header -->
    <text x="120" y="38" fill="#0f172a" font-size="13" font-weight="900" text-anchor="middle" font-family="monospace">APEX COFFEE &amp; BAKERY</text>
    <text x="120" y="52" fill="#475569" font-size="9" text-anchor="middle" font-family="monospace">404 DOWNTOWN BOULEVARD</text>
    <text x="120" y="65" fill="#475569" font-size="9" text-anchor="middle" font-family="monospace">TEL: +1 (555) 019-2834</text>
    <text x="120" y="78" fill="#475569" font-size="9" text-anchor="middle" font-family="monospace">VAT / PAN: 602391024</text>

    <line x1="16" y1="90" x2="224" y2="90" stroke="#94a3b8" stroke-dasharray="3 3"/>

    <text x="16" y="106" fill="#334155" font-size="9" font-family="monospace">BILL NO: #1082</text>
    <text x="224" y="106" fill="#334155" font-size="9" text-anchor="end" font-family="monospace">27/09/2026</text>
    <text x="16" y="120" fill="#334155" font-size="9" font-family="monospace">CASHIER: SARAH</text>
    <text x="224" y="120" fill="#334155" font-size="9" text-anchor="end" font-family="monospace">14:28 PM</text>

    <line x1="16" y1="130" x2="224" y2="130" stroke="#94a3b8" stroke-dasharray="3 3"/>

    <!-- Items -->
    <text x="16" y="148" fill="#0f172a" font-size="9" font-weight="700" font-family="monospace">2x ESPRESSO ROAST</text>
    <text x="224" y="148" fill="#0f172a" font-size="9" font-weight="700" text-anchor="end" font-family="monospace">$7.00</text>

    <text x="16" y="168" fill="#0f172a" font-size="9" font-weight="700" font-family="monospace">1x ALMOND CROISSANT</text>
    <text x="224" y="168" fill="#0f172a" font-size="9" font-weight="700" text-anchor="end" font-family="monospace">$4.50</text>

    <text x="16" y="188" fill="#0f172a" font-size="9" font-weight="700" font-family="monospace">1x NITRO COLD BREW</text>
    <text x="224" y="188" fill="#0f172a" font-size="9" font-weight="700" text-anchor="end" font-family="monospace">$5.50</text>

    <line x1="16" y1="202" x2="224" y2="202" stroke="#94a3b8" stroke-dasharray="3 3"/>

    <!-- Subtotals -->
    <text x="16" y="218" fill="#475569" font-size="9" font-family="monospace">SUBTOTAL:</text>
    <text x="224" y="218" fill="#0f172a" font-size="9" text-anchor="end" font-family="monospace">$17.00</text>

    <text x="16" y="232" fill="#475569" font-size="9" font-family="monospace">DISCOUNT (10%):</text>
    <text x="224" y="232" fill="#0f172a" font-size="9" text-anchor="end" font-family="monospace">-$1.70</text>

    <text x="16" y="246" fill="#475569" font-size="9" font-family="monospace">VAT / TAX (13%):</text>
    <text x="224" y="246" fill="#0f172a" font-size="9" text-anchor="end" font-family="monospace">+$1.99</text>

    <line x1="16" y1="256" x2="224" y2="256" stroke="#0f172a" stroke-width="1.5"/>

    <text x="16" y="274" fill="#0f172a" font-size="12" font-weight="900" font-family="monospace">TOTAL AMOUNT:</text>
    <text x="224" y="274" fill="#0f172a" font-size="13" font-weight="900" text-anchor="end" font-family="monospace">$17.29</text>

    <text x="16" y="292" fill="#475569" font-size="9" font-family="monospace">PAYMENT: CASH</text>
    <text x="224" y="292" fill="#475569" font-size="9" text-anchor="end" font-family="monospace">PAID IN FULL</text>

    <!-- Barcode & QR Code simulation -->
    <g transform="translate(24, 312)">
      <!-- Barcode lines -->
      <line x1="0" y1="0" x2="0" y2="28" stroke="#0f172a" stroke-width="2"/>
      <line x1="4" y1="0" x2="4" y2="28" stroke="#0f172a" stroke-width="1"/>
      <line x1="8" y1="0" x2="8" y2="28" stroke="#0f172a" stroke-width="3"/>
      <line x1="14" y1="0" x2="14" y2="28" stroke="#0f172a" stroke-width="1"/>
      <line x1="18" y1="0" x2="18" y2="28" stroke="#0f172a" stroke-width="2"/>
      <line x1="24" y1="0" x2="24" y2="28" stroke="#0f172a" stroke-width="4"/>
      <line x1="32" y1="0" x2="32" y2="28" stroke="#0f172a" stroke-width="1"/>
      <line x1="36" y1="0" x2="36" y2="28" stroke="#0f172a" stroke-width="2"/>
      <line x1="42" y1="0" x2="42" y2="28" stroke="#0f172a" stroke-width="3"/>
      <line x1="48" y1="0" x2="48" y2="28" stroke="#0f172a" stroke-width="1"/>
      <line x1="52" y1="0" x2="52" y2="28" stroke="#0f172a" stroke-width="2"/>
      <line x1="58" y1="0" x2="58" y2="28" stroke="#0f172a" stroke-width="1"/>
      <line x1="62" y1="0" x2="62" y2="28" stroke="#0f172a" stroke-width="3"/>
      <line x1="68" y1="0" x2="68" y2="28" stroke="#0f172a" stroke-width="2"/>
      <line x1="74" y1="0" x2="74" y2="28" stroke="#0f172a" stroke-width="4"/>
      <line x1="82" y1="0" x2="82" y2="28" stroke="#0f172a" stroke-width="1"/>
      <line x1="86" y1="0" x2="86" y2="28" stroke="#0f172a" stroke-width="2"/>
      <line x1="92" y1="0" x2="92" y2="28" stroke="#0f172a" stroke-width="3"/>
      <line x1="98" y1="0" x2="98" y2="28" stroke="#0f172a" stroke-width="1"/>
      <line x1="102" y1="0" x2="102" y2="28" stroke="#0f172a" stroke-width="2"/>
      <line x1="108" y1="0" x2="108" y2="28" stroke="#0f172a" stroke-width="4"/>
      <line x1="116" y1="0" x2="116" y2="28" stroke="#0f172a" stroke-width="1"/>
      <line x1="120" y1="0" x2="120" y2="28" stroke="#0f172a" stroke-width="2"/>
      <line x1="126" y1="0" x2="126" y2="28" stroke="#0f172a" stroke-width="3"/>
      <line x1="132" y1="0" x2="132" y2="28" stroke="#0f172a" stroke-width="1"/>
      <line x1="136" y1="0" x2="136" y2="28" stroke="#0f172a" stroke-width="2"/>
      <line x1="142" y1="0" x2="142" y2="28" stroke="#0f172a" stroke-width="4"/>
      <line x1="150" y1="0" x2="150" y2="28" stroke="#0f172a" stroke-width="1"/>
      <line x1="154" y1="0" x2="154" y2="28" stroke="#0f172a" stroke-width="2"/>
      <line x1="160" y1="0" x2="160" y2="28" stroke="#0f172a" stroke-width="3"/>
      <line x1="166" y1="0" x2="166" y2="28" stroke="#0f172a" stroke-width="1"/>
      <line x1="170" y1="0" x2="170" y2="28" stroke="#0f172a" stroke-width="2"/>
      <line x1="176" y1="0" x2="176" y2="28" stroke="#0f172a" stroke-width="4"/>
      <line x1="184" y1="0" x2="184" y2="28" stroke="#0f172a" stroke-width="2"/>
      <line x1="190" y1="0" x2="190" y2="28" stroke="#0f172a" stroke-width="2"/>
    </g>

    <!-- Footer Message -->
    <text x="120" y="360" fill="#64748b" font-size="8" font-weight="700" text-anchor="middle" font-family="monospace">*** THANK YOU FOR VISITING ***</text>
    <text x="120" y="374" fill="#94a3b8" font-size="8" text-anchor="middle" font-family="monospace">POWERED BY QUICKBILL POS</text>

    <!-- Thermal Printer Badge -->
    <rect x="24" y="392" width="192" height="30" rx="8" fill="#f1f5f9" stroke="#e2e8f0"/>
    <text x="120" y="411" fill="#475569" font-size="9" font-weight="700" text-anchor="middle" font-family="system-ui, sans-serif">2" / 3" Thermal &amp; Bluetooth Ready</text>
  </g>
</svg>
